<svg width="320" height="70" viewBox="0 0 320 70" fill="none" xmlns="http://www.w3.org/2000/svg">
<g clip-path="url(#clip0_5308_409545)">
<path d="M18.123 16.3576C10.9194 16.3576 5.34436 21.6115 5.34436 28.9199C5.34436 35.0864 9.76047 41.4823 18.123 41.4823C21.6081 41.4823 24.8625 40.1108 27.1859 37.8267C29.5093 35.3131 30.9044 32.1165 30.671 28.9172C30.671 25.4911 29.5093 22.5213 26.9525 20.2372C24.6291 17.7237 21.6081 16.3549 18.123 16.3549M17.4254 46.5067C6.04193 46.5094 0 37.3732 0 28.9227C0 18.8712 7.4343 11.5627 17.4282 11.5627C23.4701 11.5627 27.1859 14.303 28.8145 15.9041C29.048 16.1336 29.2786 16.1336 29.5121 16.1336C29.9762 16.1336 30.4403 15.6773 30.4403 15.221V3.10947C30.4403 1.73794 31.602 0.369141 33.2278 0.369141C34.623 0.369141 36.0154 1.51117 36.0154 3.10947V43.0833C36.0154 44.4549 34.8537 45.5969 33.4585 45.5969C32.0634 45.5969 30.9017 44.4549 30.9017 43.0833V42.8538C30.9017 42.1681 30.4375 41.9413 29.9734 41.9413C29.74 41.9413 29.5093 41.9413 29.2759 42.1708C26.0242 44.9111 22.0722 46.5121 17.4254 46.5121" fill="#5DC23E"/>
<path d="M57.2459 16.4336C50.0422 16.4336 44.6979 21.6875 44.6979 28.9959C44.6979 36.3044 50.0422 41.5583 57.2459 41.5583C64.4495 41.5583 69.7938 36.3044 69.7938 28.9959C69.7938 21.6875 64.4495 16.4336 57.2459 16.4336ZM57.2459 46.3586C47.0213 46.3586 39.3535 38.8207 39.3535 28.9987C39.3535 19.1766 47.0213 11.4092 57.2459 11.4092C67.4704 11.4092 75.1382 18.9471 75.1382 28.9987C75.3716 38.8207 67.4704 46.3586 57.2459 46.3586Z" fill="#5DC23E"/>
<path d="M92.7627 46.3565C83.6998 46.127 78.3555 40.6463 78.3555 31.0511V14.8331C78.3555 13.4616 79.5172 12.0928 81.143 12.0928C82.5381 12.0928 83.9305 13.2348 83.9305 14.8331V30.1385C83.9305 35.1629 85.5563 41.3321 93.9216 41.3321H94.1551C100.661 41.3321 104.38 37.4497 104.38 31.0538V15.0653C104.38 13.6938 105.541 12.325 107.167 12.325C108.793 12.325 109.955 13.467 109.955 15.0653V43.3894C109.955 44.5314 109.026 45.6734 107.631 45.6734C106.006 45.6734 104.61 44.3019 104.61 42.7036V42.0178C104.61 41.7883 104.377 41.7883 104.377 41.7883C104.377 41.7883 104.143 41.7883 104.143 42.0178C101.82 44.7582 97.8709 46.3592 92.7572 46.3592L92.7627 46.3565Z" fill="#5DC23E"/>
<path d="M132.233 16.3576C125.029 16.3576 119.685 21.6115 119.685 28.9199C119.685 36.2284 125.029 41.4823 131.999 41.4823C140.365 41.4823 144.778 35.3159 144.778 28.9199C144.778 21.8383 139.434 16.3576 132.23 16.3576M132.694 46.5094C128.278 46.5094 124.098 44.9111 121.308 42.1681C121.074 41.9386 120.844 41.9386 120.61 41.9386C120.146 41.9386 119.682 42.3948 119.682 42.8511V43.0806C119.682 44.4521 118.52 45.5942 117.125 45.5942C115.73 45.5942 114.568 44.4521 114.568 43.0806V3.10947C114.568 1.73794 115.73 0.369141 117.356 0.369141C118.751 0.369141 120.143 1.51117 120.143 3.10947V15.4451C120.143 16.1308 120.608 16.3576 121.072 16.3576C121.305 16.3576 121.536 16.3576 121.769 16.1281C124.79 13.3878 128.739 11.7867 132.922 11.56C142.913 11.56 150.35 19.0979 150.35 28.9199C150.117 38.9715 142.916 46.5094 132.691 46.5094" fill="#5DC23E"/>
<path d="M156.657 45.4572C155.261 45.4572 153.869 44.3152 153.869 42.7169V2.74033C153.869 1.3688 155.031 0 156.657 0C158.282 0 159.444 1.14203 159.444 2.74033V42.7142C159.211 44.3125 158.049 45.4545 156.657 45.4545" fill="#5DC23E"/>
<path d="M206.848 45.4572C205.453 45.4572 204.061 44.3152 204.061 42.7169V2.74033C204.061 1.3688 205.222 0 206.848 0C208.243 0 209.636 1.14203 209.636 2.74033V42.7142C209.402 44.3125 208.24 45.4545 206.848 45.4545" fill="#7742A5"/>
<path d="M181.052 16.2097C175.243 16.2097 170.129 19.8653 168.968 25.1192C168.968 25.3487 168.968 25.5755 169.201 25.805C169.435 26.0345 169.665 26.2613 169.899 26.2613H191.974C192.207 26.2613 192.671 26.0318 192.671 25.805C192.905 25.5755 192.905 25.3487 192.905 25.1192C191.977 20.7779 187.327 16.2097 181.054 16.2097C181.21 16.2097 181.21 16.2097 181.054 16.2097M181.054 46.3616C169.437 46.3616 163.162 37.4521 163.162 29.0016C163.162 19.1796 171.063 11.4121 180.821 11.4121C185.468 11.4121 189.884 13.0104 193.136 16.2097C196.156 19.1796 198.016 23.0619 198.48 27.4033C198.48 28.3158 198.246 29.0016 197.552 29.6874C196.854 30.3731 196.156 30.5999 195.228 30.5999H169.668C169.435 30.5999 169.204 30.8294 168.971 30.8294C168.737 31.0589 168.737 31.2857 168.737 31.5152C169.665 38.1406 175.477 41.5667 180.821 41.5667H181.054C185.471 41.5667 189.186 39.5121 191.51 36.0833C191.974 35.3975 192.671 34.9412 193.6 34.9412C194.528 34.9412 195.459 35.3975 195.923 36.3128C196.387 37.2253 196.387 38.1406 195.69 38.8263C194.294 40.8809 192.669 42.4819 190.579 43.624C187.791 45.4518 184.537 46.3643 181.052 46.3643" fill="#5DC23E"/>
<path d="M301.877 16.3601C298.392 16.3601 295.371 17.7317 292.814 20.0157C290.491 22.2998 289.329 25.4991 289.329 28.9252C289.329 32.3513 290.724 35.5506 293.047 37.8347C295.371 40.1188 298.625 41.2608 302.11 41.2608C309.314 41.2608 314.658 36.0069 314.658 28.6985C314.658 22.7588 310.242 16.3629 301.88 16.3629M287.008 57.7082C285.613 57.7082 284.221 56.5662 284.221 54.9679V14.7618C284.221 13.3903 285.382 12.2483 286.778 12.2483C288.173 12.2483 289.334 13.3903 289.334 14.7618V15.2181C289.334 15.9039 289.799 16.1306 290.263 16.1306C290.496 16.1306 290.727 16.1306 290.96 15.9011C293.981 12.9313 297.93 11.333 302.577 11.333C313.73 11.333 320.005 20.4693 320.005 28.9225C320.005 38.7445 312.571 46.2825 302.577 46.2825C296.535 46.2825 292.819 43.5421 291.191 41.9411C290.957 41.7116 290.727 41.7116 290.493 41.7116C290.029 41.7116 289.565 42.1679 289.565 42.6241V54.9597C289.799 56.558 288.637 57.7001 287.008 57.7001" fill="#7742A5"/>
<path d="M262.744 41.4276C259.259 41.4276 256.005 40.2856 253.681 38.0015C251.358 35.7174 249.963 32.5181 249.963 29.092C249.963 25.6659 251.124 22.4666 253.448 20.1825C255.771 17.8984 259.026 16.5269 262.511 16.5269C270.876 16.5269 275.289 22.6933 275.289 29.0893C275.523 35.9415 269.945 41.4249 262.741 41.4249M231.139 41.4249C227.654 41.4249 224.4 40.2828 222.076 37.9988C219.753 35.7147 218.358 32.5154 218.358 29.0893C218.358 25.6632 219.52 22.4638 221.843 20.1798C224.166 17.8957 227.421 16.5242 230.906 16.5242C239.271 16.5242 243.684 22.6906 243.684 29.0865C243.684 35.9387 238.34 41.4221 231.136 41.4221M262.969 11.9561H230.439C220.912 11.9561 213.244 19.494 213.244 28.8598V29.0893C213.244 38.455 220.912 45.993 230.439 45.993H262.969C272.496 45.993 280.164 38.455 280.164 29.0893V28.8598C280.164 19.494 272.496 11.9561 262.969 11.9561Z" fill="#7742A5"/>
</g>
<defs>
<clipPath id="clip0_5308_409545">
<rect width="320" height="70" fill="white"/>
</clipPath>
</defs>
</svg>
